<?xml version="1.0" encoding="iso-8859-1"?>
<!-- Generator: Adobe Illustrator 19.0.0, SVG Export Plug-In . SVG Version: 6.00 Build 0)  -->
<svg version="1.1" id="Layer_1" xmlns="http://www.w3.org/2000/svg" xmlns:xlink="http://www.w3.org/1999/xlink" x="0px" y="0px"
	 viewBox="0 0 512 512" style="enable-background:new 0 0 512 512;" xml:space="preserve">
<rect x="359.616" y="36.643" style="fill:#0071CE;" width="102.492" height="157.684"/>
<g>
	<path style="fill:#00A8E1;" d="M472.633,64.45c0,3.098-2.534,5.632-5.632,5.632H354.733c-3.098,0-5.632-2.535-5.632-5.632V17.278
		c0-3.098,2.534-5.632,5.632-5.632h112.269c3.097,0,5.632,2.535,5.632,5.632V64.45z"/>
	<polygon style="fill:#00A8E1;" points="485.128,244.532 255.999,72.215 26.872,244.532 26.872,500.353 485.128,500.353 	"/>
</g>
<g>
	<rect x="26.872" y="382.428" style="fill:#0071CE;" width="74.456" height="49.59"/>
	<rect x="410.675" y="304.17" style="fill:#0071CE;" width="74.456" height="49.59"/>
</g>
<path style="fill:#0055B8;" d="M265.001,110.312l237.997,178.985c4.951,3.723,9.002,1.702,9.002-4.493v-56.521
	c0-6.195-4.051-14.31-9.002-18.033L265.001,31.265c-4.951-3.723-13.053-3.723-18.003,0L9.002,210.25
	C4.051,213.973,0,222.088,0,228.283v56.521c0,6.195,4.051,8.216,9.002,4.493l237.997-178.985
	C251.949,106.589,260.051,106.589,265.001,110.312z"/>
<path style="fill:#0071CE;" d="M343.636,500.353V301.318c0-12.388-10.137-22.525-22.526-22.525H190.89
	c-12.389,0-22.526,10.137-22.526,22.525v199.036h175.272V500.353z"/>
<g>
	<rect x="199.684" y="321.252" style="fill:#FFFFFF;" width="112.631" height="61.187"/>
	<circle style="fill:#FFFFFF;" cx="255.999" cy="208.963" r="38.672"/>
</g>
<g>
</g>
<g>
</g>
<g>
</g>
<g>
</g>
<g>
</g>
<g>
</g>
<g>
</g>
<g>
</g>
<g>
</g>
<g>
</g>
<g>
</g>
<g>
</g>
<g>
</g>
<g>
</g>
<g>
</g>
</svg>
